<svg width="100" height="25" viewBox="0 0 100 25" fill="none" xmlns="http://www.w3.org/2000/svg">
<path d="M30.1994 14.3543V4.43874H32.5123V10.1457C33.107 9.11009 34.4067 8.49312 36.0588 8.49312C39.4951 8.49312 41.2354 10.4322 41.2354 14.3543C41.2354 18.3206 39.4511 20.2156 35.7284 20.2156C31.9836 20.2156 30.1994 18.3206 30.1994 14.3543ZM38.9444 14.3543C38.9444 11.7102 37.9532 10.5644 35.7284 10.5644C33.5035 10.5644 32.5123 11.7102 32.5123 14.3543C32.5123 16.9985 33.4815 18.1443 35.7284 18.1443C37.9532 18.1443 38.9444 16.9985 38.9444 14.3543Z" fill="white"/>
<path d="M43.1301 4.85649H45.9937V7.05996H43.1301V4.85649ZM43.4165 8.84477H45.7074V19.8621H43.4165V8.84477Z" fill="white"/>
<path d="M49.5589 15.7841V10.9145H47.6425V8.84322H49.5589V6.4194H51.8498V8.84322H55.6827V10.9145H51.8498V15.6299C51.8498 17.2384 52.4446 17.7893 54.1407 17.7893H55.6827V19.8606H53.9205C50.7264 19.8606 49.5589 18.7148 49.5589 15.7841Z" fill="white"/>
<path d="M57.1413 14.3541C57.1413 10.4319 58.8594 8.49289 62.3178 8.49289C63.9699 8.49289 65.2696 9.10986 65.8643 10.1455V4.43851H68.1552V14.3541C68.1552 18.3204 66.393 20.2153 62.6482 20.2153C58.9255 20.2153 57.1413 18.3204 57.1413 14.3541ZM65.8643 14.3541C65.8643 11.7099 64.8731 10.5641 62.6482 10.5641C60.4234 10.5641 59.4322 11.7099 59.4322 14.3541C59.4322 16.9983 60.4234 18.1441 62.6482 18.1441C64.8731 18.1441 65.8643 16.9983 65.8643 14.3541Z" fill="white"/>
<path d="M74.4978 8.84692H76.9429V10.9182H74.7181C72.9999 10.9182 72.4272 11.4691 72.4272 13.0776V19.8643H70.1363V12.8793C70.1341 9.92662 71.2795 8.84692 74.4978 8.84692Z" fill="white"/>
<path d="M78.6143 4.85649H81.4779V7.05996H78.6143V4.85649ZM78.9006 8.84477H81.1915V19.8621H78.9006V8.84477Z" fill="white"/>
<path d="M89.0578 4.43851H90.82V6.33349H89.3001C87.5819 6.33349 86.9872 6.88436 86.9872 8.49289V8.84765H90.82V10.9189H86.9872V19.8628H84.6962V10.9189H82.7798V8.84324L84.6962 8.84765V8.33865C84.6962 5.386 85.8637 4.43851 89.0578 4.43851Z" fill="white"/>
<path d="M93.8764 15.7841V10.9145H91.9599V8.84322H93.8764V6.4194H96.1673V8.84322H100V10.9145H96.1673V15.6299C96.1673 17.2384 96.762 17.7893 98.4582 17.7893H100V19.8606H98.2379C95.0438 19.8606 93.8764 18.7148 93.8764 15.7841Z" fill="white"/>
<mask id="mask0_5_2" style="mask-type:luminance" maskUnits="userSpaceOnUse" x="0" y="0" width="12" height="12">
<path d="M9.71873 0.0161591V7.69304C9.71873 7.98169 9.37069 8.12492 9.16803 7.9222L3.75136 2.50608L2.47594 3.78188L7.84415 9.15173C8.04681 9.35445 7.90363 9.7026 7.61506 9.7026H0V11.4962H6.57314C9.29138 11.4962 11.4942 9.29275 11.4942 6.57367V0.0161591H9.71873Z" fill="white"/>
</mask>
<g mask="url(#mask0_5_2)">
<path d="M9.03769 28.6361L-4.30683 15.2875C-5.96774 13.6261 -5.96774 10.929 -4.30683 9.2676L9.47384 -4.51729C11.1347 -6.17871 13.831 -6.17871 15.4919 -4.51729L28.8364 8.83131C30.4973 10.4927 30.4973 13.1898 28.8364 14.8512L15.0557 28.6361C13.3948 30.2997 10.7008 30.2997 9.03769 28.6361Z" fill="url(#paint0_linear_5_2)"/>
</g>
<mask id="mask1_5_2" style="mask-type:luminance" maskUnits="userSpaceOnUse" x="13" y="0" width="12" height="12">
<path d="M24.6622 9.7217H16.9876C16.6991 9.7217 16.5559 9.37355 16.7585 9.17083L22.173 3.75471L20.8976 2.4789L15.5316 7.84875C15.3289 8.05147 14.9809 7.90824 14.9809 7.61959V0H13.1878V6.57515C13.1878 9.29422 15.3906 11.4977 18.1088 11.4977H24.6622V9.7217Z" fill="white"/>
</mask>
<g mask="url(#mask1_5_2)">
<path d="M9.04003 28.6318L-4.30449 15.2832C-5.9654 13.6218 -5.9654 10.9248 -4.30449 9.26334L9.47618 -4.52155C11.1371 -6.18296 13.8333 -6.18296 15.4942 -4.52155L28.8387 8.82705C30.4996 10.4885 30.4996 13.1855 28.8387 14.8469L15.0581 28.6318C13.3972 30.2954 10.7031 30.2954 9.04003 28.6318Z" fill="url(#paint1_linear_5_2)"/>
</g>
<mask id="mask2_5_2" style="mask-type:luminance" maskUnits="userSpaceOnUse" x="13" y="13" width="12" height="12">
<path d="M14.9321 24.6523V16.9754C14.9321 16.6868 15.2801 16.5435 15.4828 16.7463L20.8973 22.1624L22.1727 20.8866L16.8045 15.5167C16.6018 15.314 16.745 14.9658 17.0336 14.9658H24.6508V13.1722H18.0777C15.3594 13.1722 13.1567 15.3757 13.1567 18.0948V24.6501L14.9321 24.6523Z" fill="white"/>
</mask>
<g mask="url(#mask2_5_2)">
<path d="M9.02876 28.6304L-4.31576 15.2818C-5.97667 13.6204 -5.97667 10.9234 -4.31576 9.26194L9.46492 -4.52295C11.1258 -6.18437 13.822 -6.18437 15.4829 -4.52295L28.8275 8.82565C30.4884 10.4871 30.4884 13.1841 28.8275 14.8455L15.0468 28.6304C13.3859 30.294 10.6919 30.294 9.02876 28.6304Z" fill="url(#paint2_linear_5_2)"/>
</g>
<mask id="mask3_5_2" style="mask-type:luminance" maskUnits="userSpaceOnUse" x="0" y="13" width="12" height="12">
<path d="M0 14.9327H7.67453C7.9631 14.9327 8.10628 15.2808 7.90362 15.4835L2.48695 20.8996L3.76237 22.1755L9.13058 16.8056C9.33324 16.6029 9.68128 16.7461 9.68128 17.0348V24.6544H11.4744V18.0792C11.4744 15.3601 9.27156 13.1567 6.55331 13.1567H0V14.9327Z" fill="white"/>
</mask>
<g mask="url(#mask3_5_2)">
<path d="M9.03769 28.6267L-4.30683 15.2781C-5.96774 13.6167 -5.96774 10.9196 -4.30683 9.25822L9.47384 -4.52667C11.1347 -6.18809 13.831 -6.18809 15.4919 -4.52667L28.8364 8.82193C30.4973 10.4833 30.4973 13.1804 28.8364 14.8418L15.0557 28.6267C13.3948 30.2903 10.7008 30.2903 9.03769 28.6267Z" fill="url(#paint3_linear_5_2)"/>
</g>
<defs>
<linearGradient id="paint0_linear_5_2" x1="12.2658" y1="-5.76296" x2="12.2658" y2="29.8846" gradientUnits="userSpaceOnUse">
<stop stop-color="#69BD54"/>
<stop offset="1" stop-color="#4272B7"/>
</linearGradient>
<linearGradient id="paint1_linear_5_2" x1="12.2681" y1="-5.76721" x2="12.2681" y2="29.8803" gradientUnits="userSpaceOnUse">
<stop stop-color="#69BD54"/>
<stop offset="1" stop-color="#4272B7"/>
</linearGradient>
<linearGradient id="paint2_linear_5_2" x1="12.2569" y1="-5.76862" x2="12.2569" y2="29.8789" gradientUnits="userSpaceOnUse">
<stop stop-color="#69BD54"/>
<stop offset="1" stop-color="#4272B7"/>
</linearGradient>
<linearGradient id="paint3_linear_5_2" x1="12.2658" y1="-5.77234" x2="12.2658" y2="29.8752" gradientUnits="userSpaceOnUse">
<stop stop-color="#69BD54"/>
<stop offset="1" stop-color="#4272B7"/>
</linearGradient>
</defs>
</svg>
